<svg version="1.1" id="Layer_1" xmlns="http://www.w3.org/2000/svg" xmlns:xlink="http://www.w3.org/1999/xlink" x="0px" y="0px" viewBox="0 0 24 24" enable-background="new 0 0 24 24" xml:space="preserve">
<g>
<path fill="#ffffff" d="M9.352376,6.3525391C9.2318316,6.4732056,9.1488848,6.6165771,9.0921831,6.7747803L9.0623245,6.7583008
		l-7.9999995,14.5c-0.1074098,0.1953125-0.0732301,0.4379883,0.0839965,0.5952148l0.9999999,1
		C2.2420247,22.949707,2.3709309,23,2.4998372,23c0.0830078,0,0.1660156-0.0205078,0.2412109-0.0620117l14.500001-8
		l-0.0147095-0.0267334c0.1583252-0.0567627,0.2999878-0.1430664,0.4209595-0.2637939
		c1.0615234-1.0625-0.46875-3.7045898-2.5292978-5.765625C13.0574541,6.8212891,10.4119463,5.2885742,9.352376,6.3525391z
		 M3.4840901,18.9378662l1.063843-1.9281616c0.6503296,0.9672852,1.4738159,1.7929688,2.4404297,2.442749l-1.9265747,1.0629272
		C4.483541,20.043396,3.9554646,19.515686,3.4840901,18.9378662z M5.0960288,16.0163574l1.2039185-2.1820679
		c0.5890503,1.8428955,2.0297236,3.2759399,3.8696284,3.8630371l-2.1846309,1.2053223
		C6.7851768,18.2041626,5.7953086,17.2169189,5.0960288,16.0163574z M7.0295005,12.5120239l2.238647-4.0574951
		c0.453125,1.1465454,1.4480591,2.4978638,2.6135254,3.6636353c1.1678467,1.1674805,2.5197754,2.1588745,3.6677246,2.6110229
		L11.49471,16.9662476C9.1324663,16.7293091,7.2703452,14.8799438,7.0295005,12.5120239z M2.5877278,21.8803711l-0.46875-0.4682617
		l0.8526611-1.5454102c0.3607788,0.4135742,0.7475586,0.800354,1.1612551,1.1611938L2.5877278,21.8803711z M16.9402676,13.9404297
		c-0.2724609,0.2734375-2.0810556-0.2602539-4.3515635-2.5292969c-2.2695313-2.2700195-2.8017578-4.0791016-2.5292969-4.3515625
		c0.0419922-0.0424805,0.1220703-0.0649414,0.234375-0.0649414c0.6113281,0,2.1992188,0.6772461,4.1171875,2.5942383
		C16.6795254,11.8583984,17.2117519,13.6674805,16.9402676,13.9404297z" id="id_101"></path>
<path fill="#ffffff" d="M12.7224932,4.4179688C12.4344072,4.609375,11.9998369,4.8994141,11.9998369,5.5
		c0,0.2763672,0.2236328,0.5,0.5,0.5s0.5-0.2236328,0.5-0.5c0-0.0561523,0.0820313-0.1196289,0.2773438-0.25
		c0.2880859-0.1914063,0.7226563-0.4814453,0.7226563-1.0820313c0-0.6010742-0.4345703-0.8911133-0.7226563-1.0830078
		c-0.1953125-0.1303711-0.2773438-0.1943359-0.2773438-0.2509766s0.0820313-0.1206055,0.2773438-0.2509766
		C13.5652666,2.3911133,13.9998369,2.1010742,13.9998369,1.5c0-0.2763672-0.2236328-0.5-0.5-0.5s-0.5,0.2236328-0.5,0.5
		c0,0.0566406-0.0820313,0.1206055-0.2773438,0.2509766c-0.2880859,0.1918945-0.7226563,0.4819336-0.7226563,1.0830078
		s0.4345703,0.8911133,0.7226563,1.0830078c0.1953125,0.1303711,0.2773438,0.1943359,0.2773438,0.2509766
		C12.9998369,4.2241211,12.9178057,4.2875977,12.7224932,4.4179688z" id="id_102"></path>
<path fill="#ffffff" d="M22.4998379,11c-0.0556641,0-0.1054688-0.0532227-0.2539063-0.2700195
		c-0.1923828-0.2807617-0.4824219-0.7055664-1.0800781-0.7055664s-0.8876953,0.4248047-1.0800781,0.7055664
		C19.9373245,10.9467773,19.8875332,11,19.8318691,11s-0.1054688-0.0527344-0.2529297-0.2695313
		c-0.1923828-0.28125-0.4824219-0.7060547-1.0791016-0.7060547c-0.2763672,0-0.5,0.2236328-0.5,0.5s0.2236328,0.5,0.5,0.5
		c0.0556641,0,0.1054688,0.0527344,0.2529297,0.2695313C18.9451504,11.5751953,19.2351894,12,19.8318691,12
		c0.5976563,0,0.8876953-0.4248047,1.0800781-0.7055664c0.1484375-0.2167969,0.1982422-0.2700195,0.2539063-0.2700195
		s0.1054688,0.0532227,0.2539063,0.2700195C21.6121426,11.5751953,21.9021816,12,22.4998379,12c0.2763672,0,0.5-0.2236328,0.5-0.5
		S22.7762051,11,22.4998379,11z" id="id_103"></path>
<path fill="#ffffff" d="M16.4998379,8c0.1279297,0,0.2558594-0.0488281,0.3535156-0.1464844
		c0.140625-0.1411133,0.265625-0.1445313,0.5917969-0.1245117c0.3789063,0.0229492,0.890625,0.0551758,1.3623047-0.4150391
		c0.4716797-0.4716797,0.4394531-0.9868164,0.4160156-1.362793c-0.0205078-0.3330078-0.015625-0.4526367,0.125-0.5927734
		c0.1416016-0.1420898,0.2646484-0.1455078,0.5966797-0.1274414c0.3759766,0.0244141,0.890625,0.0551758,1.3632813-0.4179688
		c0.4726563-0.4726563,0.4404297-0.987793,0.4179688-1.3637695c-0.0205078-0.3339844-0.0146484-0.4536133,0.1269531-0.5957031
		c0.1953125-0.1953125,0.1953125-0.5117188,0-0.7070313s-0.5117188-0.1953125-0.7070313,0
		c-0.4726563,0.472168-0.4404297,0.9873047-0.4179688,1.3632813c0.0205078,0.3339844,0.0146484,0.4541016-0.1269531,0.5961914
		s-0.2636719,0.1464844-0.5957031,0.1269531c-0.375-0.0219727-0.890625-0.0541992-1.3642578,0.4179688
		c-0.4716797,0.4716797-0.4394531,0.9868164-0.4160156,1.362793c0.0205078,0.3330078,0.015625,0.4526367-0.125,0.5927734
		c-0.1386719,0.140625-0.2578125,0.1469727-0.5927734,0.1245117c-0.3720703-0.0229492-0.890625-0.0571289-1.3613281,0.4155273
		c-0.1953135,0.1953125-0.1953135,0.512207,0,0.7070313C16.2439785,7.9511719,16.3719082,8,16.4998379,8z" id="id_104"></path>
<circle fill="#ffffff" cx="16.4998379" cy="2.5" r="0.5" id="id_105"></circle>
<circle fill="#ffffff" cx="10.4998369" cy="4.5" r="0.5" id="id_106"></circle>
<circle fill="#ffffff" cx="21.4998379" cy="7.5" r="0.5" id="id_107"></circle>
<circle fill="#ffffff" cx="19.4998379" cy="8.5" r="0.5" id="id_108"></circle>
</g>
<g>
</g>
<g>
</g>
<g>
</g>
<g>
</g>
<g>
</g>
<g>
</g>
<g>
</g>
<g>
</g>
<g>
</g>
<g>
</g>
<g>
</g>
<g>
</g>
<g>
</g>
<g>
</g>
<g>
</g>
</svg>