<svg width="64" height="64" viewBox="0 0 64 64" fill="none" xmlns="http://www.w3.org/2000/svg">
<path d="M51.072 36C51.6653 36 52.2454 35.8241 52.7387 35.4944C53.2321 35.1648 53.6166 34.6962 53.8436 34.148C54.0707 33.5999 54.1301 32.9967 54.0144 32.4147C53.8986 31.8328 53.6129 31.2982 53.1933 30.8787C52.7738 30.4591 52.2392 30.1734 51.6573 30.0576C51.0753 29.9419 50.4721 30.0013 49.924 30.2284C49.3758 30.4554 48.9072 30.8399 48.5776 31.3333C48.2479 31.8266 48.072 32.4067 48.072 33C48.072 33.7957 48.3881 34.5587 48.9507 35.1213C49.5133 35.6839 50.2763 36 51.072 36ZM51.072 32C51.2698 32 51.4631 32.0586 51.6276 32.1685C51.792 32.2784 51.9202 32.4346 51.9959 32.6173C52.0716 32.8 52.0914 33.0011 52.0528 33.1951C52.0142 33.3891 51.919 33.5673 51.7791 33.7071C51.6393 33.847 51.4611 33.9422 51.2671 33.9808C51.0731 34.0194 50.872 33.9996 50.6893 33.9239C50.5066 33.8482 50.3504 33.72 50.2405 33.5556C50.1307 33.3911 50.072 33.1978 50.072 33C50.072 32.7348 50.1774 32.4804 50.3649 32.2929C50.5524 32.1054 50.8068 32 51.072 32V32Z" fill="#ffffff" id="id_104"></path>
<path d="M59.5 34.4L58.048 33.562C58.064 33.373 58.072 33.186 58.072 32.999C58.072 32.812 58.064 32.625 58.048 32.436L59.5 31.6C59.6139 31.5343 59.7136 31.4469 59.7937 31.3426C59.8737 31.2384 59.9324 31.1193 59.9664 30.9924C60.0004 30.8654 60.009 30.733 59.9918 30.6027C59.9746 30.4724 59.9318 30.3468 59.866 30.233L57.866 26.769C57.8006 26.655 57.7134 26.5551 57.6093 26.4748C57.5052 26.3946 57.3863 26.3357 57.2595 26.3014C57.1326 26.2671 57.0002 26.2582 56.8699 26.2751C56.7396 26.292 56.6139 26.3345 56.5 26.4L55.045 27.24C54.7363 27.0274 54.4109 26.8401 54.072 26.68V25C54.072 24.7348 53.9666 24.4804 53.7791 24.2929C53.5916 24.1054 53.3372 24 53.072 24H49.072C48.8068 24 48.5524 24.1054 48.3649 24.2929C48.1774 24.4804 48.072 24.7348 48.072 25V26.681C47.7328 26.8405 47.4073 27.0278 47.099 27.241L45.644 26.401C45.5302 26.3352 45.4045 26.2925 45.2742 26.2754C45.1438 26.2582 45.0114 26.267 44.8844 26.301C44.7574 26.3351 44.6384 26.3939 44.5342 26.474C44.43 26.5542 44.3426 26.6541 44.277 26.768L42.277 30.232C42.2112 30.3458 42.1685 30.4715 42.1514 30.6018C42.1342 30.7322 42.143 30.8646 42.177 30.9916C42.2111 31.1186 42.2699 31.2376 42.35 31.3418C42.4302 31.446 42.5301 31.5334 42.644 31.599L44.097 32.437C44.08 32.627 44.072 32.815 44.072 33C44.072 33.185 44.08 33.373 44.097 33.563L42.644 34.401C42.4142 34.5336 42.2465 34.7521 42.1777 35.0084C42.109 35.2646 42.1449 35.5377 42.2775 35.7675C42.4101 35.9973 42.6286 36.165 42.8848 36.2338C43.1411 36.3025 43.4142 36.2666 43.644 36.134L45.676 34.961C45.8547 34.8577 45.9971 34.7016 46.0836 34.5141C46.1701 34.3267 46.1964 34.117 46.159 33.914C46.043 33.3102 46.043 32.6898 46.159 32.086C46.1964 31.883 46.1701 31.6733 46.0836 31.4859C45.9971 31.2984 45.8547 31.1423 45.676 31.039L44.51 30.366L45.51 28.634L46.677 29.308C46.8562 29.4113 47.063 29.4565 47.269 29.4373C47.475 29.4181 47.6699 29.3356 47.827 29.201C48.2931 28.8035 48.8284 28.495 49.406 28.291C49.6007 28.222 49.7693 28.0944 49.8885 27.9257C50.0078 27.757 50.0719 27.5556 50.072 27.349V26H52.072V27.349C52.0721 27.5556 52.1362 27.757 52.2555 27.9257C52.3747 28.0944 52.5433 28.222 52.738 28.291C53.3156 28.4945 53.8506 28.803 54.316 29.201C54.4732 29.3358 54.6683 29.4185 54.8745 29.4377C55.0806 29.4568 55.2877 29.4115 55.467 29.308L56.634 28.634L57.634 30.366L56.468 31.039C56.2891 31.1422 56.1465 31.2982 56.0598 31.4857C55.9732 31.6732 55.9467 31.8829 55.984 32.086C56.1013 32.6897 56.1013 33.3103 55.984 33.914C55.9467 34.1171 55.9732 34.3268 56.0598 34.5143C56.1465 34.7018 56.2891 34.8578 56.468 34.961L57.634 35.634L56.634 37.366L55.467 36.692C55.2877 36.5885 55.0806 36.5432 54.8745 36.5623C54.6683 36.5815 54.4732 36.6642 54.316 36.799C53.8506 37.197 53.3156 37.5055 52.738 37.709C52.5433 37.778 52.3747 37.9056 52.2555 38.0743C52.1362 38.243 52.0721 38.4444 52.072 38.651V40H50.072V38.651C50.072 38.3858 49.9666 38.1314 49.7791 37.9439C49.5916 37.7564 49.3372 37.651 49.072 37.651C48.8068 37.651 48.5524 37.7564 48.3649 37.9439C48.1774 38.1314 48.072 38.3858 48.072 38.651V39.625L47.028 40.668C46.936 40.627 46.843 40.588 46.75 40.551V39C46.75 38.7348 46.6446 38.4804 46.4571 38.2929C46.2696 38.1054 46.0152 38 45.75 38H40.25C39.9848 38 39.7304 38.1054 39.5429 38.2929C39.3554 38.4804 39.25 38.7348 39.25 39V40.551C39.157 40.588 39.064 40.627 38.972 40.668L37.872 39.568C37.6845 39.3805 37.4302 39.2752 37.165 39.2752C36.8998 39.2752 36.6455 39.3805 36.458 39.568L33.891 42.135C33.6025 42.0455 33.3021 42 33 42V40.226C35.1719 38.5433 36.9313 36.3873 38.1443 33.9221C39.3573 31.4569 39.992 28.7475 40 26C40 25.7348 39.8946 25.4804 39.7071 25.2929C39.5196 25.1054 39.2652 25 39 25H33.454C33.7674 24.4666 33.9516 23.8673 33.9917 23.2499C34.0318 22.6326 33.9268 22.0144 33.685 21.445L35.532 21.939C35.7881 22.0078 36.061 21.972 36.2907 21.8396C36.5204 21.7072 36.6881 21.489 36.757 21.233L36.957 20.481C36.9928 20.3462 37 20.2053 36.9781 20.0676C36.9563 19.9298 36.9058 19.7981 36.83 19.681C36.6799 19.4549 36.5779 19.2004 36.5302 18.9333C36.4825 18.6662 36.4902 18.3921 36.5529 18.128C36.6155 17.864 36.7317 17.6156 36.8943 17.3984C37.0569 17.1811 37.2624 16.9996 37.498 16.865C37.8405 16.6673 38.234 16.5755 38.6286 16.6014C39.0233 16.6272 39.4014 16.7695 39.7152 17.0102C40.029 17.2509 40.2644 17.5792 40.3916 17.9537C40.5189 18.3282 40.5322 18.7319 40.43 19.114C40.3573 19.3845 40.2278 19.6364 40.0503 19.8529C39.8727 20.0695 39.651 20.2457 39.4 20.37C39.2753 20.4337 39.1654 20.5229 39.0774 20.6317C38.9894 20.7406 38.9252 20.8668 38.889 21.002L38.689 21.754C38.655 21.8809 38.6463 22.0132 38.6634 22.1434C38.6805 22.2736 38.7231 22.3992 38.7888 22.513C38.8544 22.6267 38.9418 22.7264 39.046 22.8064C39.1502 22.8863 39.2691 22.945 39.396 22.979L46.157 24.79C46.2417 24.813 46.3292 24.8245 46.417 24.824C46.637 24.8238 46.8507 24.7511 47.0252 24.6171C47.1996 24.4832 47.325 24.2954 47.382 24.083C48.5161 19.8358 48.0536 15.3201 46.082 11.391C46.0239 11.2725 45.943 11.1666 45.8438 11.0796C45.7446 10.9925 45.6292 10.9259 45.5042 10.8837C45.3791 10.8414 45.247 10.8243 45.1153 10.8334C44.9836 10.8425 44.8551 10.8775 44.737 10.9365C44.6189 10.9955 44.5137 11.0773 44.4274 11.1771C44.3411 11.277 44.2755 11.3929 44.2342 11.5183C44.1929 11.6436 44.1769 11.7759 44.1869 11.9075C44.197 12.0391 44.2331 12.1674 44.293 12.285C45.89 15.4705 46.3771 19.0981 45.677 22.592L41.317 21.423C41.8179 20.9297 42.1783 20.3119 42.361 19.633C42.6342 18.6083 42.49 17.517 41.9598 16.5984C41.4297 15.6799 40.557 15.0091 39.533 14.733C38.8549 14.5491 38.1402 14.5478 37.4613 14.729C36.7825 14.9102 36.1636 15.2676 35.6673 15.765C35.1711 16.2624 34.815 16.8821 34.6353 17.5614C34.4556 18.2406 34.4586 18.9553 34.644 19.633L31.219 18.716L32.513 13.886C32.547 13.7591 32.5557 13.6268 32.5386 13.4966C32.5215 13.3664 32.4789 13.2408 32.4132 13.1271C32.3476 13.0133 32.2602 12.9136 32.156 12.8336C32.0518 12.7537 31.9329 12.695 31.806 12.661L31.054 12.461C30.9192 12.4247 30.7783 12.4172 30.6404 12.4391C30.5026 12.461 30.3709 12.5117 30.254 12.588C30.0306 12.7339 29.7803 12.8335 29.5178 12.8809C29.2553 12.9283 28.9859 12.9226 28.7257 12.8641C28.4654 12.8056 28.2195 12.6955 28.0025 12.5403C27.7855 12.3851 27.6019 12.188 27.4624 11.9606C27.323 11.7332 27.2306 11.4801 27.1906 11.2164C27.1507 10.9526 27.164 10.6835 27.2299 10.425C27.2958 10.1665 27.4128 9.92384 27.5741 9.71137C27.7354 9.4989 27.9377 9.32093 28.169 9.188C28.629 8.9233 29.1751 8.8514 29.688 8.988C29.9582 9.06084 30.2097 9.19036 30.4259 9.36796C30.6421 9.54555 30.8181 9.76715 30.942 10.018C31.0057 10.1424 31.0948 10.252 31.2035 10.3399C31.3121 10.4277 31.438 10.4918 31.573 10.528L32.325 10.728C32.4519 10.7622 32.5843 10.771 32.7147 10.754C32.845 10.7369 32.9707 10.6943 33.0846 10.6287C33.1984 10.563 33.2983 10.4755 33.3783 10.3713C33.4583 10.267 33.517 10.148 33.551 10.021L35.1 4.255C37.8824 5.18834 40.352 6.87396 42.235 9.125C42.4057 9.32816 42.65 9.4552 42.9144 9.47817C43.1787 9.50114 43.4413 9.41817 43.6445 9.2475C43.8477 9.07684 43.9747 8.83246 43.9977 8.56812C44.0206 8.30379 43.9377 8.04116 43.767 7.838C41.4014 5.01212 38.2202 2.98637 34.659 2.038C34.4029 1.96958 34.1302 2.00561 33.9007 2.13818C33.6712 2.27075 33.5037 2.48901 33.435 2.745L31.994 8.1C31.4988 7.59988 30.8804 7.23928 30.2012 7.0546C29.5221 6.86993 28.8062 6.86773 28.1259 7.04821C27.4456 7.2287 26.825 7.58549 26.3267 8.08255C25.8284 8.57962 25.4701 9.19936 25.288 9.87919C25.1058 10.559 25.1062 11.2749 25.2892 11.9545C25.4722 12.6341 25.8313 13.2534 26.3302 13.7499C26.8291 14.2463 27.4502 14.6023 28.1307 14.782C28.8112 14.9616 29.5271 14.9585 30.206 14.773L29.039 19.13C28.4365 19.2754 27.8763 19.5599 27.4035 19.9607C26.9306 20.3614 26.5581 20.8673 26.3158 21.4378C26.0735 22.0084 25.9681 22.6277 26.0081 23.2462C26.048 23.8648 26.2323 24.4654 26.546 25H23V20C23 19.7348 22.8946 19.4804 22.7071 19.2929C22.5196 19.1054 22.2652 19 22 19H21.222C21.082 18.9999 20.9434 19.0292 20.8155 19.0861C20.6875 19.1429 20.5728 19.226 20.479 19.33C20.2941 19.5402 20.0666 19.7086 19.8116 19.8241C19.5566 19.9396 19.2799 19.9996 19 20C18.4696 20 17.9609 19.7893 17.5858 19.4142C17.2107 19.0391 17 18.5304 17 18C17 17.4696 17.2107 16.9609 17.5858 16.5858C17.9609 16.2107 18.4696 16 19 16C19.2799 16.0004 19.5566 16.0604 19.8116 16.1759C20.0666 16.2914 20.2941 16.4598 20.479 16.67C20.5728 16.774 20.6875 16.8571 20.8155 16.9139C20.9434 16.9708 21.082 17.0001 21.222 17H22C22.2652 17 22.5196 16.8946 22.7071 16.7071C22.8946 16.5196 23 16.2652 23 16V9C23 8.73479 22.8946 8.48043 22.7071 8.2929C22.5196 8.10536 22.2652 8 22 8C17.701 8.0038 13.5455 9.54696 10.286 12.35C10.0988 12.5263 9.98663 12.7679 9.97287 13.0246C9.95911 13.2814 10.0448 13.5336 10.2121 13.7288C10.3794 13.9241 10.6155 14.0474 10.8714 14.0731C11.1272 14.0988 11.3832 14.025 11.586 13.867C14.2238 11.5993 17.5285 10.2527 21 10.031V14.546C20.3937 14.1895 19.7033 14.0011 19 14C17.9391 14 16.9217 14.4214 16.1716 15.1716C15.4214 15.9217 15 16.9391 15 18C15 19.0609 15.4214 20.0783 16.1716 20.8284C16.9217 21.5786 17.9391 22 19 22C19.7033 21.9989 20.3937 21.8105 21 21.454V25H16C15.7348 25 15.4804 25.1054 15.2929 25.2929C15.1054 25.4804 15 25.7348 15 26V26.778C14.9999 26.9181 15.0292 27.0566 15.0861 27.1846C15.1429 27.3125 15.226 27.4272 15.33 27.521C15.5402 27.7059 15.7086 27.9334 15.8241 28.1884C15.9396 28.4434 15.9996 28.7201 16 29C16 29.5304 15.7893 30.0391 15.4142 30.4142C15.0391 30.7893 14.5304 31 14 31C13.4696 31 12.9609 30.7893 12.5858 30.4142C12.2107 30.0391 12 29.5304 12 29C12.0004 28.7201 12.0604 28.4434 12.1759 28.1884C12.2914 27.9334 12.4598 27.7059 12.67 27.521C12.774 27.4272 12.8571 27.3125 12.9139 27.1846C12.9708 27.0566 13.0001 26.9181 13 26.778V26C13 25.7348 12.8946 25.4804 12.7071 25.2929C12.5196 25.1054 12.2652 25 12 25H6.031C6.21871 21.9855 7.26256 19.087 9.04 16.645C9.19542 16.43 9.25908 16.1622 9.21697 15.9003C9.17487 15.6384 9.03046 15.4039 8.8155 15.2485C8.60054 15.0931 8.33265 15.0294 8.07075 15.0715C7.80886 15.1136 7.57442 15.258 7.419 15.473C5.19366 18.5316 3.99652 22.2175 4 26C4.00803 28.7475 4.6427 31.4569 5.85572 33.9221C7.06873 36.3873 8.82813 38.5433 11 40.226V42C10.4198 41.9974 9.85136 42.1639 9.3642 42.4791C8.87705 42.7943 8.49223 43.2445 8.25678 43.7749C8.02132 44.3052 7.94541 44.8926 8.03833 45.4653C8.13125 46.0381 8.38896 46.5713 8.78 47C8.38896 47.4287 8.13125 47.962 8.03833 48.5347C7.94541 49.1074 8.02132 49.6948 8.25678 50.2252C8.49223 50.7555 8.87705 51.2057 9.3642 51.5209C9.85136 51.8361 10.4198 52.0026 11 52H28C28.2652 52 28.5196 51.8946 28.7071 51.7071C28.8946 51.5196 29 51.2652 29 51C29 50.7348 28.8946 50.4804 28.7071 50.2929C28.5196 50.1054 28.2652 50 28 50H11C10.7348 50 10.4804 49.8946 10.2929 49.7071C10.1054 49.5196 10 49.2652 10 49C10 48.7348 10.1054 48.4804 10.2929 48.2929C10.4804 48.1054 10.7348 48 11 48H28C28.2652 48 28.5196 47.8946 28.7071 47.7071C28.8946 47.5196 29 47.2652 29 47C29 46.7348 28.8946 46.4804 28.7071 46.2929C28.5196 46.1054 28.2652 46 28 46H11C10.7348 46 10.4804 45.8946 10.2929 45.7071C10.1054 45.5196 10 45.2652 10 45C10 44.7348 10.1054 44.4804 10.2929 44.2929C10.4804 44.1054 10.7348 44 11 44H32.31C32.2794 44.1557 32.2871 44.3165 32.3324 44.4685C32.3777 44.6206 32.4592 44.7594 32.57 44.873L33.67 45.973C33.629 46.065 33.59 46.158 33.553 46.251H32C31.7348 46.251 31.4804 46.3564 31.2929 46.5439C31.1054 46.7314 31 46.9858 31 47.251V51C30.9986 53.0666 30.2861 55.0697 28.9821 56.673C27.6781 58.2762 25.862 59.3818 23.8391 59.8041C21.8161 60.2264 19.7094 59.9396 17.8729 58.9919C16.0364 58.0443 14.582 56.4934 13.754 54.6C13.7042 54.4757 13.63 54.3627 13.5357 54.2676C13.4413 54.1725 13.3289 54.0974 13.205 54.0466C13.0811 53.9958 12.9483 53.9704 12.8144 53.9719C12.6805 53.9734 12.5482 54.0018 12.4255 54.0554C12.3028 54.109 12.1921 54.1867 12.1 54.2839C12.0078 54.3811 11.9362 54.4958 11.8892 54.6212C11.8423 54.7466 11.821 54.8801 11.8266 55.0139C11.8322 55.1477 11.8647 55.279 11.922 55.4C12.8356 57.4979 14.3814 59.2582 16.3437 60.4353C18.3059 61.6123 20.5867 62.1473 22.8677 61.9656C25.1487 61.7839 27.316 60.8946 29.0672 59.4218C30.8184 57.9489 32.066 55.9661 32.636 53.75H33.551C33.588 53.843 33.627 53.936 33.668 54.028L32.568 55.128C32.3805 55.3155 32.2752 55.5698 32.2752 55.835C32.2752 56.1002 32.3805 56.3545 32.568 56.542L36.457 60.431C36.6445 60.6185 36.8988 60.7238 37.164 60.7238C37.4292 60.7238 37.6835 60.6185 37.871 60.431L38.971 59.331C39.063 59.372 39.156 59.411 39.249 59.448V61C39.249 61.2652 39.3544 61.5196 39.5419 61.7071C39.7294 61.8946 39.9838 62 40.249 62H42C42.2652 62 42.5196 61.8946 42.7071 61.7071C42.8946 61.5196 43 61.2652 43 61C43 60.7348 42.8946 60.4804 42.7071 60.2929C42.5196 60.1054 42.2652 60 42 60H41.25V58.746C41.25 58.5332 41.1821 58.3259 41.0562 58.1544C40.9304 57.9828 40.753 57.8558 40.55 57.792C40.0935 57.6471 39.6508 57.462 39.227 57.239C39.0386 57.1395 38.8231 57.1031 38.6125 57.1354C38.4018 57.1676 38.2071 57.2667 38.057 57.418L37.165 58.309L34.69 55.834L35.581 54.942C35.7315 54.7914 35.83 54.5968 35.8622 54.3863C35.8944 54.1759 35.8586 53.9607 35.76 53.772C35.537 53.3482 35.3519 52.9055 35.207 52.449C35.1432 52.246 35.0162 52.0687 34.8446 51.9428C34.6731 51.8169 34.4658 51.749 34.253 51.749H33V48.249H34.254C34.4668 48.249 34.6741 48.1811 34.8456 48.0552C35.0172 47.9294 35.1442 47.752 35.208 47.549C35.3529 47.0926 35.538 46.6498 35.761 46.226C35.8596 46.0373 35.8954 45.8221 35.8632 45.6117C35.831 45.4012 35.7325 45.2066 35.582 45.056L34.691 44.164L37.166 41.689L38.058 42.58C38.2086 42.7305 38.4032 42.829 38.6137 42.8612C38.8241 42.8934 39.0393 42.8576 39.228 42.759C39.6518 42.536 40.0945 42.3509 40.551 42.206C40.754 42.1422 40.9314 42.0152 41.0572 41.8436C41.1831 41.6721 41.251 41.4648 41.251 41.252V40H44.751V41.254C44.751 41.4668 44.8189 41.6741 44.9448 41.8456C45.0706 42.0172 45.248 42.1442 45.451 42.208C45.9075 42.3529 46.3502 42.538 46.774 42.761C46.9627 42.8596 47.1779 42.8954 47.3883 42.8632C47.5988 42.831 47.7934 42.7325 47.944 42.582L48.836 41.691L51.311 44.166L50.42 45.058C50.2695 45.2086 50.171 45.4032 50.1388 45.6137C50.1066 45.8241 50.1424 46.0393 50.241 46.228C50.464 46.6518 50.6491 47.0946 50.794 47.551C50.8578 47.754 50.9848 47.9314 51.1564 48.0572C51.3279 48.1831 51.5352 48.251 51.748 48.251H53V51.751H51.746C51.5332 51.751 51.3259 51.8189 51.1544 51.9448C50.9828 52.0707 50.8558 52.248 50.792 52.451C50.6471 52.9075 50.462 53.3502 50.239 53.774C50.1404 53.9627 50.1046 54.1779 50.1368 54.3883C50.169 54.5988 50.2675 54.7934 50.418 54.944L51.309 55.836L48.834 58.311L47.942 57.42C47.7914 57.2695 47.5968 57.171 47.3863 57.1388C47.1759 57.1066 46.9607 57.1424 46.772 57.241C46.3482 57.464 45.9055 57.6491 45.449 57.794C45.246 57.8578 45.0686 57.9848 44.9428 58.1564C44.8169 58.3279 44.749 58.5352 44.749 58.748V61C44.749 61.2652 44.8544 61.5196 45.0419 61.7071C45.2294 61.8946 45.4838 62 45.749 62C46.0142 62 46.2686 61.8946 46.4561 61.7071C46.6436 61.5196 46.749 61.2652 46.749 61V59.449C46.842 59.412 46.935 59.373 47.027 59.332L48.127 60.432C48.3145 60.6195 48.5688 60.7248 48.834 60.7248C49.0992 60.7248 49.3535 60.6195 49.541 60.432L53.43 56.543C53.6175 56.3555 53.7228 56.1012 53.7228 55.836C53.7228 55.5708 53.6175 55.3165 53.43 55.129L52.33 54.029C52.371 53.937 52.41 53.844 52.447 53.751H54C54.2652 53.751 54.5196 53.6456 54.7071 53.4581C54.8946 53.2706 55 53.0162 55 52.751V47.251C55 46.9858 54.8946 46.7314 54.7071 46.5439C54.5196 46.3564 54.2652 46.251 54 46.251H52.449C52.412 46.158 52.373 46.065 52.332 45.973L53.432 44.873C53.6195 44.6855 53.7248 44.4312 53.7248 44.166C53.7248 43.9008 53.6195 43.6465 53.432 43.459L51.971 42H53.071C53.3362 42 53.5906 41.8946 53.7781 41.7071C53.9656 41.5196 54.071 41.2652 54.071 41V39.319C54.4099 39.1589 54.7353 38.9716 55.044 38.759L56.499 39.599C56.7291 39.7305 57.0017 39.7665 57.258 39.699C57.5141 39.6303 57.7325 39.4627 57.865 39.233L59.865 35.769C59.9312 35.6552 59.9742 35.5295 59.9917 35.399C60.0091 35.2685 60.0007 35.1359 59.9668 35.0087C59.9329 34.8815 59.8742 34.7623 59.7941 34.6578C59.714 34.5534 59.614 34.4658 59.5 34.4ZM23 42V37.454C23.6063 37.8105 24.2967 37.9989 25 38C26.0609 38 27.0783 37.5786 27.8284 36.8284C28.5786 36.0783 29 35.0609 29 34C29 32.9391 28.5786 31.9217 27.8284 31.1716C27.0783 30.4214 26.0609 30 25 30C24.2967 30.0011 23.6063 30.1895 23 30.546V30C23 29.7348 22.8946 29.4804 22.7071 29.2929C22.5196 29.1054 22.2652 29 22 29C21.7348 29 21.4804 29.1054 21.2929 29.2929C21.1054 29.4804 21 29.7348 21 30V32C21 32.2652 21.1054 32.5196 21.2929 32.7071C21.4804 32.8946 21.7348 33 22 33H22.778C22.918 33.0001 23.0566 32.9708 23.1845 32.9139C23.3125 32.8571 23.4272 32.774 23.521 32.67C23.7059 32.4598 23.9334 32.2914 24.1884 32.1759C24.4434 32.0604 24.7201 32.0004 25 32C25.5304 32 26.0391 32.2107 26.4142 32.5858C26.7893 32.9609 27 33.4696 27 34C27 34.5304 26.7893 35.0391 26.4142 35.4142C26.0391 35.7893 25.5304 36 25 36C24.7201 35.9996 24.4434 35.9396 24.1884 35.8241C23.9334 35.7086 23.7059 35.5402 23.521 35.33C23.4272 35.226 23.3125 35.1429 23.1845 35.0861C23.0566 35.0292 22.918 34.9999 22.778 35H22C21.7348 35 21.4804 35.1054 21.2929 35.2929C21.1054 35.4804 21 35.7348 21 36V42H13V39.727C13.0001 39.5696 12.963 39.4143 12.8918 39.2739C12.8205 39.1335 12.7171 39.0119 12.59 38.919C10.692 37.5326 9.12119 35.7468 7.98828 33.6874C6.85537 31.6281 6.18792 29.3453 6.033 27H10.546C10.1895 27.6063 10.0011 28.2967 10 29C10 30.0609 10.4214 31.0783 11.1716 31.8284C11.9217 32.5786 12.9391 33 14 33C15.0609 33 16.0783 32.5786 16.8284 31.8284C17.5786 31.0783 18 30.0609 18 29C17.9989 28.2967 17.8105 27.6063 17.454 27H28C28.2652 27 28.5196 26.8946 28.7071 26.7071C28.8946 26.5196 29 26.2652 29 26V25.222C29.0001 25.082 28.9708 24.9434 28.9139 24.8155C28.8571 24.6875 28.774 24.5728 28.67 24.479C28.4598 24.2941 28.2914 24.0666 28.1759 23.8116C28.0604 23.5566 28.0004 23.2799 28 23C28 22.4696 28.2107 21.9609 28.5858 21.5858C28.9609 21.2107 29.4696 21 30 21C30.5304 21 31.0391 21.2107 31.4142 21.5858C31.7893 21.9609 32 22.4696 32 23C31.9996 23.2799 31.9396 23.5566 31.8241 23.8116C31.7086 24.0666 31.5402 24.2941 31.33 24.479C31.226 24.5728 31.1429 24.6875 31.0861 24.8155C31.0292 24.9434 30.9999 25.082 31 25.222V26C31 26.2652 31.1054 26.5196 31.2929 26.7071C31.4804 26.8946 31.7348 27 32 27H37.968C37.8129 29.3454 37.1453 31.6282 36.0122 33.6875C34.8791 35.7469 33.3081 37.5327 31.41 38.919C31.2829 39.0119 31.1795 39.1335 31.1082 39.2739C31.037 39.4143 30.9999 39.5696 31 39.727V42H23Z" fill="#ffffff" id="id_105"></path>
<path d="M43 46C43.4978 46.003 43.9907 46.0993 44.453 46.284C44.5759 46.3357 44.7079 46.3623 44.8413 46.3623C44.9746 46.3622 45.1066 46.3355 45.2295 46.2837C45.3523 46.2319 45.4636 46.156 45.5567 46.0606C45.6498 45.9651 45.7229 45.852 45.7717 45.7279C45.8204 45.6038 45.8439 45.4712 45.8406 45.3379C45.8373 45.2046 45.8075 45.0732 45.7527 44.9517C45.6979 44.8301 45.6194 44.7207 45.5218 44.6299C45.4241 44.5391 45.3093 44.4687 45.184 44.423C43.8932 43.9125 42.4658 43.8625 41.1424 44.2814C39.819 44.7003 38.6804 45.5626 37.9185 46.723C37.1566 47.8833 36.8179 49.2708 36.9595 50.6517C37.1012 52.0326 37.7144 53.3225 38.696 54.304C39.6775 55.2856 40.9674 55.8988 42.3483 56.0405C43.7292 56.1821 45.1167 55.8434 46.277 55.0815C47.4374 54.3196 48.2997 53.181 48.7186 51.8576C49.1375 50.5342 49.0875 49.1068 48.577 47.816C48.5312 47.6907 48.4609 47.5759 48.3701 47.4782C48.2793 47.3806 48.1699 47.302 48.0483 47.2473C47.9267 47.1925 47.7954 47.1626 47.6621 47.1594C47.5288 47.1561 47.3962 47.1796 47.2721 47.2283C47.148 47.2771 47.0349 47.3502 46.9394 47.4433C46.844 47.5364 46.7681 47.6477 46.7163 47.7705C46.6645 47.8934 46.6377 48.0254 46.6377 48.1587C46.6377 48.2921 46.6643 48.4241 46.716 48.547C47.0252 49.3424 47.0714 50.2159 46.848 51.0396C46.6246 51.8632 46.1433 52.5936 45.4746 53.1238C44.8058 53.6539 43.9849 53.956 43.132 53.9856C42.2791 54.0152 41.4392 53.7709 40.7353 53.2884C40.0314 52.8059 39.5005 52.1107 39.2205 51.3046C38.9405 50.4984 38.926 49.6238 39.1792 48.8088C39.4324 47.9939 39.94 47.2815 40.6276 46.776C41.3152 46.2705 42.1466 45.9986 43 46V46Z" fill="#ffffff" id="id_106"></path>
</svg>